<!-- Generated by IcoMoon.io -->
<svg version="1.1" xmlns="http://www.w3.org/2000/svg" width="32" height="32" viewBox="0 0 32 32">
<title>applepay</title>
<path d="M5.851 11.045c-0.376 0.449-0.976 0.803-1.576 0.752-0.075-0.607 0.219-1.251 0.563-1.649 0.376-0.461 1.032-0.788 1.563-0.815 0.063 0.632-0.181 1.251-0.549 1.712zM6.393 11.917c-0.868-0.051-1.613 0.5-2.024 0.5-0.42 0-1.051-0.475-1.739-0.461-0.893 0.013-1.724 0.524-2.18 1.34-0.939 1.629-0.244 4.044 0.661 5.371 0.444 0.657 0.976 1.377 1.676 1.352 0.661-0.025 0.924-0.436 1.724-0.436 0.807 0 1.037 0.436 1.739 0.424 0.724-0.013 1.18-0.657 1.624-1.315 0.507-0.747 0.713-1.472 0.725-1.511-0.013-0.013-1.4-0.549-1.413-2.167-0.012-1.353 1.093-1.997 1.144-2.035-0.624-0.936-1.6-1.037-1.937-1.063zM11.413 10.085v9.852h1.513v-3.368h2.093c1.912 0 3.256-1.328 3.256-3.248 0-1.921-1.319-3.236-3.205-3.236zM12.927 11.375h1.744c1.312 0 2.061 0.707 2.061 1.952s-0.749 1.96-2.068 1.96h-1.739zM21.039 20.012c0.951 0 1.832-0.485 2.232-1.257h0.031v1.183h1.4v-4.904c0-1.421-1.125-2.339-2.856-2.339-1.607 0-2.793 0.929-2.837 2.205h1.363c0.112-0.607 0.668-1.004 1.431-1.004 0.925 0 1.444 0.436 1.444 1.239v0.543l-1.888 0.115c-1.756 0.107-2.707 0.833-2.707 2.097 0 1.276 0.981 2.123 2.388 2.123zM21.445 18.844c-0.807 0-1.32-0.392-1.32-0.992 0-0.62 0.495-0.98 1.439-1.037l1.68-0.107v0.556c0 0.923-0.773 1.58-1.799 1.58zM26.571 22.617c1.475 0 2.168-0.569 2.773-2.295l2.656-7.533h-1.537l-1.781 5.82h-0.031l-1.781-5.82h-1.581l2.561 7.173-0.137 0.436c-0.231 0.739-0.605 1.023-1.275 1.023-0.119 0-0.349-0.013-0.444-0.025v1.183c0.088 0.025 0.463 0.037 0.577 0.039z"></path>
</svg>
